<svg width="42" height="40" viewBox="0 0 42 40" fill="none" xmlns="http://www.w3.org/2000/svg">
<mask id="mask0" mask-type="alpha" maskUnits="userSpaceOnUse" x="0" y="0" width="42" height="40">
<path fill-rule="evenodd" clip-rule="evenodd" d="M0 0H41.3069V39.9996H0V0Z" fill="white"/>
</mask>
<g mask="url(#mask0)">
<path fill-rule="evenodd" clip-rule="evenodd" d="M20.6041 3.8096C20.5461 3.8096 20.4991 3.8576 20.4991 3.9146C20.4991 3.9826 20.5751 4.0066 20.5791 4.0076L20.6041 4.0146L20.6291 4.0076C20.6331 4.0066 20.7091 3.9826 20.7091 3.9146C20.7091 3.8576 20.6621 3.8096 20.6041 3.8096ZM16.3991 9.6076C15.4381 9.6076 14.4861 9.8226 13.6271 10.2356C12.5231 10.7656 10.8701 11.6136 9.25809 12.6446C7.58209 13.7156 5.96809 15.1016 4.90909 16.0756C4.22809 16.7036 3.82909 17.5966 3.81609 18.5266C3.78609 20.7386 3.83109 24.9736 4.46909 28.4936C4.71009 29.8196 5.44109 30.9846 6.52909 31.7726C7.25409 32.2976 11.0541 34.9746 14.6311 36.0266C15.1901 36.1916 15.7821 36.2306 16.3311 36.1486C19.4361 35.6916 29.9591 34.0156 35.2191 31.6456C35.6501 31.4516 35.9721 31.0596 36.0781 30.5976C36.6481 28.1246 37.9141 21.7886 37.3651 16.3886C37.3091 15.8326 36.9851 15.3436 36.5001 15.0796C34.4621 13.9616 28.9151 11.2426 21.4461 10.0966L20.4351 9.9426L19.3381 9.8266C18.3351 9.7186 17.4981 9.6526 16.7031 9.6156C16.6011 9.6106 16.5001 9.6076 16.3991 9.6076ZM15.7561 39.9996C15.0141 39.9996 14.2731 39.8926 13.5561 39.6816C9.48409 38.4856 5.43709 35.6866 4.29309 34.8566C2.40609 33.4886 1.13709 31.4706 0.72109 29.1726C0.0250899 25.3386 -0.0249102 20.8246 0.00708983 18.4746C0.0340898 16.5006 0.88109 14.6056 2.33009 13.2716C3.50109 12.1956 5.29709 10.6546 7.20709 9.4346C8.97909 8.3006 10.7791 7.3766 11.9771 6.8016C13.4951 6.0726 15.1981 5.7276 16.8821 5.8096C16.9831 5.8136 17.0841 5.8196 17.1861 5.8256C16.8671 5.2566 16.6891 4.6036 16.6891 3.9146C16.6891 1.7556 18.4451 -0.000396729 20.6041 -0.000396729C22.7631 -0.000396729 24.5191 1.7556 24.5191 3.9146C24.5191 4.9326 24.1311 5.8726 23.4741 6.5756C30.8101 7.9216 36.2491 10.5976 38.3301 11.7376C39.9151 12.6046 40.9711 14.1996 41.1551 16.0036C41.7621 21.9676 40.4031 28.7956 39.7901 31.4546C39.4181 33.0696 38.2931 34.4396 36.7831 35.1196C31.0761 37.6916 20.1141 39.4416 16.8911 39.9156C16.5221 39.9716 16.1391 39.9996 15.7561 39.9996Z" fill="white"/>
</g>
<path fill-rule="evenodd" clip-rule="evenodd" d="M16.5592 36.9248C19.9002 36.4298 30.2572 34.7608 35.5442 32.3788C36.2092 32.0788 36.6962 31.4868 36.8602 30.7758C37.4382 28.2638 38.7232 21.8298 38.1632 16.3118C38.0802 15.4938 37.6032 14.7688 36.8832 14.3728C34.2182 12.9148 26.9682 9.4438 17.4132 8.8508C15.9502 8.7598 14.4942 9.1188 13.2422 9.8828C11.3422 11.0408 8.2012 13.1398 4.4542 16.3478C3.6442 17.0408 3.1482 18.0298 3.0632 19.0928C2.8562 21.6858 3.3992 26.1098 4.5672 31.0228C4.7672 31.8628 5.3552 32.5568 6.1552 32.8828C8.2992 33.7558 10.7102 35.9208 14.4502 36.8318C15.1402 36.9998 15.8562 37.0288 16.5592 36.9248Z" fill="white"/>
<path fill-rule="evenodd" clip-rule="evenodd" d="M13.4688 12.0117C13.7188 11.9007 13.9798 12.1457 13.8838 12.4027C13.2758 14.0247 11.9458 18.4407 12.4048 25.0917C12.7158 29.6157 13.4418 32.3187 14.0538 33.8607C14.4918 34.9617 15.5608 35.6807 16.7458 35.6807H21.0808L15.6388 36.9847C15.6388 36.9847 6.05383 34.2597 5.61483 33.1077C4.86983 29.1587 4.80183 23.8657 5.03983 19.8727C5.15883 17.8627 5.07683 17.3097 7.59483 15.4437C9.76083 13.8367 12.2718 12.5457 13.4688 12.0117Z" fill="#D5E4EC"/>
<path fill-rule="evenodd" clip-rule="evenodd" d="M38.1628 24.3418L12.5098 21.9358L2.9228 23.9508L2.6958 22.8708L12.4458 20.8208L38.2658 23.2438L38.1628 24.3418Z" fill="#89A1B1"/>
<path fill-rule="evenodd" clip-rule="evenodd" d="M15.4425 12.0986C14.5605 14.7866 12.3165 23.2696 15.3215 32.7656C15.5585 33.5126 16.2915 33.9876 17.0695 33.8966C20.5455 33.4926 30.0295 32.2776 34.5045 30.5856C34.6855 30.5176 34.8175 30.3636 34.8595 30.1746C35.2125 28.5606 36.8245 20.8036 36.1735 16.7796C36.1145 16.4156 35.8855 16.1046 35.5535 15.9466C33.7215 15.0686 26.9655 12.1466 16.6685 11.2856C16.1215 11.2396 15.6135 11.5766 15.4425 12.0986Z" fill="#343A4C"/>
<path fill-rule="evenodd" clip-rule="evenodd" d="M16.3995 9.9092C15.4835 9.9092 14.5755 10.1132 13.7575 10.5072C12.6625 11.0322 11.0215 11.8742 9.4205 12.8972C7.7635 13.9572 6.1635 15.3312 5.1135 16.2982C4.4925 16.8682 4.1285 17.6822 4.1175 18.5302C4.0875 20.7302 4.1315 24.9432 4.7655 28.4392C4.9925 29.6892 5.6815 30.7862 6.7055 31.5282C8.7875 33.0372 11.9855 34.9352 14.7155 35.7372C15.2335 35.8892 15.7645 35.9282 16.2925 35.8492C19.3825 35.3942 29.8715 33.7252 35.0945 31.3712C35.4415 31.2152 35.6995 30.9002 35.7845 30.5302C36.3515 28.0712 37.6095 21.7742 37.0655 16.4192C37.0185 15.9632 36.7535 15.5602 36.3555 15.3432C33.6505 13.8622 26.3205 10.3702 16.6885 9.9162C16.5925 9.9112 16.4955 9.9092 16.3995 9.9092ZM15.7555 38.0962C15.1965 38.0962 14.6405 38.0142 14.0945 37.8542C10.3195 36.7452 6.4935 34.0992 5.4115 33.3142C3.9235 32.2372 2.9235 30.6452 2.5955 28.8332C1.9275 25.1542 1.8805 20.7802 1.9115 18.5002L3.0145 18.5152L1.9115 18.5002C1.9315 17.0492 2.5545 15.6542 3.6195 14.6742C4.7345 13.6482 6.4405 12.1842 8.2325 11.0392C9.9255 9.9562 11.6525 9.0702 12.8025 8.5182C14.0355 7.9262 15.4155 7.6472 16.7925 7.7122C26.8835 8.1882 34.5765 11.8532 37.4145 13.4072C38.4495 13.9732 39.1395 15.0162 39.2595 16.1962C39.8375 21.8792 38.5255 28.4602 37.9345 31.0252C37.6955 32.0632 36.9725 32.9442 36.0015 33.3822C30.5175 35.8542 19.7755 37.5662 16.6135 38.0322C16.3275 38.0742 16.0415 38.0962 15.7555 38.0962Z" fill="#28313B"/>
<path fill-rule="evenodd" clip-rule="evenodd" d="M20.504 22.4492C20.648 25.4502 21.261 27.8852 22.141 27.8772C23.021 27.8702 23.514 25.4242 23.691 22.4242C23.869 19.3942 23.451 16.9832 22.054 16.9952C20.657 17.0062 20.357 19.3672 20.504 22.4492Z" fill="#2FA9E0"/>
<path fill-rule="evenodd" clip-rule="evenodd" d="M30.001 23.0029C29.897 25.3049 30.193 27.2069 30.865 27.2639C31.537 27.3209 32.088 25.4879 32.436 23.2099C32.787 20.9109 32.639 19.0399 31.572 18.9489C30.504 18.8589 30.107 20.6409 30.001 23.0029Z" fill="#2FA9E0"/>
<path fill-rule="evenodd" clip-rule="evenodd" d="M10.8473 22.4199C10.8903 24.8289 9.69628 26.8039 8.18028 26.8309C6.66428 26.8569 5.40028 24.9269 5.35728 22.5179C5.31528 20.1079 6.50928 18.1339 8.02528 18.1069C9.54128 18.0789 10.8043 20.0109 10.8473 22.4199Z" fill="#29313C"/>
<path fill-rule="evenodd" clip-rule="evenodd" d="M22.6142 3.915C22.6142 2.805 21.7142 1.904 20.6042 1.904C19.4942 1.904 18.5942 2.805 18.5942 3.915C18.5942 5.024 19.4942 5.925 20.6042 5.925C21.7142 5.925 22.6142 5.024 22.6142 3.915Z" fill="#28313B"/>
<path fill-rule="evenodd" clip-rule="evenodd" d="M21.8791 8.8369H19.3301L20.0651 5.6499H21.1441L21.8791 8.8369Z" fill="#28313B"/>
</svg>
